<svg width="196" height="39" viewBox="0 0 196 39" fill="none" xmlns="http://www.w3.org/2000/svg">
<path d="M158.4 12.1409C157.1 12.5409 157.1 11.4409 157.1 11.4409C158.2 11.6409 158.3 10.7409 158.3 10.7409H156.1V9.64093H157.2C157.2 9.64093 157 8.24093 156 8.24093C155 8.24093 154.9 9.34093 155.1 9.74093C154.6 9.84093 153.9 8.94093 153.9 8.04093C153.9 6.74093 154.9 6.14093 155.8 6.14093C157.2 6.14093 158.3 7.74093 158.3 9.74093H158.7C158.7 9.74093 158.8 8.84093 158.6 7.94093C158.3 6.64093 157.6 5.84093 157.6 4.94093C157.6 3.34093 158.5 3.14093 159.3 1.74093C160.1 3.14093 161 3.34093 161 4.94093C161 5.84093 160.3 6.64093 160 7.94093C159.8 8.74093 159.9 9.74093 159.9 9.74093H160.3C160.3 7.84093 161.4 6.14093 162.8 6.14093C163.7 6.14093 164.7 6.84093 164.7 8.04093C164.7 9.04093 164 9.84093 163.5 9.74093C163.7 9.34093 163.5 8.24093 162.6 8.24093C161.6 8.24093 161.4 9.64093 161.4 9.64093H162.5V10.7409H160.3C160.3 10.7409 160.4 11.6409 161.5 11.4409C161.5 11.4409 161.5 12.5409 160.2 12.1409C160.2 12.1409 160.1 13.1409 159.4 13.5409C158.4 13.1409 158.4 12.1409 158.4 12.1409ZM169.3 1.44093H149.1V13.8409H169.3V1.44093Z" fill="white"/>
<path d="M184.4 12.1409C183.1 12.5409 183.1 11.4409 183.1 11.4409C184.2 11.6409 184.3 10.7409 184.3 10.7409H182.1V9.64093H183.2C183.2 9.64093 183 8.24093 182 8.24093C181 8.24093 180.9 9.34093 181.1 9.74093C180.6 9.84093 179.9 8.94093 179.9 8.04093C179.9 6.74093 180.9 6.14093 181.8 6.14093C183.2 6.14093 184.3 7.74093 184.3 9.74093H184.7C184.7 9.74093 184.8 8.84093 184.6 7.94093C184.3 6.64093 183.6 5.84093 183.6 4.94093C183.6 3.34093 184.5 3.14093 185.3 1.74093C186.1 3.14093 187 3.34093 187 4.94093C187 5.84093 186.3 6.64093 186 7.94093C185.8 8.74093 185.9 9.74093 185.9 9.74093H186.3C186.3 7.84093 187.4 6.14093 188.8 6.14093C189.7 6.14093 190.7 6.84093 190.7 8.04093C190.7 9.04093 190 9.84093 189.5 9.74093C189.7 9.34093 189.5 8.24093 188.6 8.24093C187.6 8.24093 187.4 9.64093 187.4 9.64093H188.5V10.7409H186.3C186.3 10.7409 186.4 11.6409 187.5 11.4409C187.5 11.4409 187.5 12.5409 186.2 12.1409C186.2 12.1409 186.1 13.1409 185.4 13.5409C184.5 13.1409 184.4 12.1409 184.4 12.1409ZM195.3 1.44093H175.1V13.8409H195.3V1.44093Z" fill="white"/>
<path d="M158.4 30.4409C157.1 30.8409 157.1 29.7409 157.1 29.7409C158.2 29.9409 158.3 29.0409 158.3 29.0409H156.1V27.9409H157.2C157.2 27.9409 157 26.5409 156 26.5409C155 26.5409 154.9 27.6409 155.1 28.0409C154.6 28.1409 153.9 27.2409 153.9 26.3409C153.9 25.0409 154.9 24.4409 155.8 24.4409C157.2 24.4409 158.3 26.0409 158.3 28.0409H158.7C158.7 28.0409 158.8 27.1409 158.6 26.2409C158.3 24.9409 157.6 24.1409 157.6 23.2409C157.6 21.6409 158.5 21.4409 159.3 20.0409C160.1 21.4409 161 21.6409 161 23.2409C161 24.1409 160.3 24.9409 160 26.2409C159.8 27.0409 159.9 28.0409 159.9 28.0409H160.3C160.3 26.1409 161.4 24.4409 162.8 24.4409C163.7 24.4409 164.7 25.1409 164.7 26.3409C164.7 27.3409 164 28.1409 163.5 28.0409C163.7 27.6409 163.5 26.5409 162.6 26.5409C161.6 26.5409 161.4 27.9409 161.4 27.9409H162.5V29.0409H160.3C160.3 29.0409 160.4 29.9409 161.5 29.7409C161.5 29.7409 161.5 30.8409 160.2 30.4409C160.2 30.4409 160.1 31.4409 159.4 31.8409C158.4 31.4409 158.4 30.4409 158.4 30.4409ZM169.3 19.6409H149.1V32.0409H169.3V19.6409Z" fill="white"/>
<path d="M184.4 30.4409C183.1 30.8409 183.1 29.7409 183.1 29.7409C184.2 29.9409 184.3 29.0409 184.3 29.0409H182.1V27.9409H183.2C183.2 27.9409 183 26.5409 182 26.5409C181 26.5409 180.9 27.6409 181.1 28.0409C180.6 28.1409 179.9 27.2409 179.9 26.3409C179.9 25.0409 180.9 24.4409 181.8 24.4409C183.2 24.4409 184.3 26.0409 184.3 28.0409H184.7C184.7 28.0409 184.8 27.1409 184.6 26.2409C184.3 24.9409 183.6 24.1409 183.6 23.2409C183.6 21.6409 184.5 21.4409 185.3 20.0409C186.1 21.4409 187 21.6409 187 23.2409C187 24.1409 186.3 24.9409 186 26.2409C185.8 27.0409 185.9 28.0409 185.9 28.0409H186.3C186.3 26.1409 187.4 24.4409 188.8 24.4409C189.7 24.4409 190.7 25.1409 190.7 26.3409C190.7 27.3409 190 28.1409 189.5 28.0409C189.7 27.6409 189.5 26.5409 188.6 26.5409C187.6 26.5409 187.4 27.9409 187.4 27.9409H188.5V29.0409H186.3C186.3 29.0409 186.4 29.9409 187.5 29.7409C187.5 29.7409 187.5 30.8409 186.2 30.4409C186.2 30.4409 186.1 31.4409 185.4 31.8409C184.5 31.4409 184.4 30.4409 184.4 30.4409ZM195.3 19.6409H175.1V32.0409H195.3V19.6409Z" fill="white"/>
<path d="M52.7 27.1409V10.7409H52.6C52 11.2409 49.9 11.3409 49 11.3409H47.4V11.4409C49.2 12.5409 49 14.2409 49 16.2409V23.1409C49 26.6409 45.6 29.0409 42.9 29.0409C39.3 29.0409 37.8 26.4409 37.8 22.3409V10.8409H37.7C37.1 11.3409 35 11.4409 34 11.4409H32.4V11.5409C34.2 12.6409 34 14.3409 34 16.3409V23.2409C34 29.5409 36.7 32.5409 41.6 32.5409C44.5 32.5409 47.5 31.5409 49 29.0409V32.0409H54.3V31.9409C52.5 30.9409 52.7 29.2409 52.7 27.1409Z" fill="white"/>
<path d="M61 18.4409C61.5 15.6409 63.6 13.8409 66.4 13.8409C69.4 13.8409 71.3 15.3409 71.8 18.4409H61ZM76.1 21.0409C76.3 15.2409 72.4 10.9409 66.8 10.9409C60.6 10.9409 56.4 15.4409 56.4 21.6409C56.4 27.9409 61.3 32.6409 68.3 32.6409C70.3 32.6409 72.2 32.3409 74 31.5409L76.1 27.3409H76C74.1 28.9409 71.7 29.7409 69.2 29.7409C64.5 29.7409 61 26.5409 60.9 21.0409H76.1Z" fill="white"/>
<path d="M79.4 1.34093C80.4 1.34093 82.4 1.24093 83 0.64093H83.1V28.9409C84.2 29.2409 85.4 29.4409 86.5 29.4409C91 29.4409 93.6 26.2409 93.6 21.8409C93.6 17.5409 91.6 14.1409 87.4 14.1409C86.1 14.1409 85.1 14.5409 83.9 15.1409L86.1 11.3409C87 10.9409 88 10.8409 89 10.8409C93.7 10.8409 97.7 14.9409 97.7 21.0409C97.7 28.0409 93 32.5409 85.5 32.5409C82.7 32.5409 80 32.0409 78 31.7409V31.6409C79.4 31.0409 79.2 29.5409 79.2 28.0409V7.54093C79.2 5.44093 79.4 2.54093 77.7 1.44093V1.34093C77.8 1.34093 79.4 1.34093 79.4 1.34093Z" fill="white"/>
<path d="M105.3 18.4409C105.8 15.6409 107.9 13.8409 110.7 13.8409C113.7 13.8409 115.6 15.3409 116.1 18.4409H105.3ZM120.3 21.0409C120.5 15.2409 116.6 10.9409 111 10.9409C104.8 10.9409 100.6 15.4409 100.6 21.6409C100.6 27.9409 105.5 32.6409 112.5 32.6409C114.5 32.6409 116.4 32.3409 118.2 31.5409L120.3 27.3409H120.2C118.3 28.9409 115.9 29.7409 113.4 29.7409C108.7 29.7409 105.2 26.5409 105.1 21.0409H120.3Z" fill="white"/>
<path d="M138.9 16.0409H138.8C137.6 14.5409 135.6 13.8409 133.7 13.8409C129.7 13.8409 126.8 16.9409 126.8 21.1409C126.8 26.3409 130.8 29.7409 135.4 29.7409C137.5 29.7409 139.8 28.8409 141.5 27.5409H141.6L139.4 31.7409C137.7 32.4409 135.7 32.6409 133.9 32.6409C127.5 32.6409 122.5 28.1409 122.5 22.3409C122.5 14.6409 128.1 10.9409 134.3 10.9409C135.8 10.9409 137.3 11.1409 138.8 11.4409L138.9 16.0409Z" fill="white"/>
<path fill-rule="evenodd" clip-rule="evenodd" d="M70.9 7.24094C70.9 5.14094 70.9 2.74094 70.9 2.74094C68.2 3.94094 65.7 6.24094 64 8.44094V10.2409C68 7.44094 70.9 7.34094 70.9 7.24094Z" fill="white"/>
<path d="M15.3 29.5409C9 29.5409 4.7 22.4409 4.7 16.4409C4.7 16.3409 4.7 15.8409 4.7 15.7409C4.8 9.94094 8.5 4.44094 15.1 4.44094C22 4.44094 25.6 10.9409 25.6 17.1409V17.7409C25.6 24.5409 21.5 29.5409 15.3 29.5409ZM36.8 36.4409C32.2 37.2409 27.7 35.7409 23 30.3409C27.6 28.0409 30.4 22.3409 30.4 17.0409C30.4 16.9409 30.4 16.4409 30.4 16.3409C30.3 7.24093 23.5 1.24094 15.4 1.24094C7.3 1.24094 0.1 7.44094 0 16.6409V17.2409C0 26.1409 6.6 32.7409 14.7 32.7409C15.9 32.7409 17 32.5409 18.1 32.2409C23.4 37.2409 28.1 39.3409 32.2 38.8409C34.1 38.6409 36.2 37.8409 37.4 36.2409L36.8 36.4409Z" fill="white"/>
</svg>
